<?xml version="1.0" standalone="no"?>
<!DOCTYPE svg PUBLIC "-//W3C//DTD SVG 20010904//EN"
 "http://www.w3.org/TR/2001/REC-SVG-20010904/DTD/svg10.dtd">
<svg version="1.0" xmlns="http://www.w3.org/2000/svg"
 width="700.000000pt" height="700.000000pt" viewBox="0 0 700.000000 700.000000"
 preserveAspectRatio="xMidYMid meet">
<metadata>
Created by potrace 1.14, written by Peter Selinger 2001-2017
</metadata>
<g transform="translate(0.000000,700.000000) scale(0.100000,-0.100000)"
fill="#000000" stroke="none">
<path d="M3427 6434 c-1 -1 -72 -5 -157 -8 -85 -4 -171 -9 -190 -11 -19 -2
-71 -6 -115 -10 -44 -3 -93 -8 -110 -10 -16 -2 -52 -7 -80 -10 -119 -14 -339
-48 -450 -70 -66 -13 -132 -26 -146 -28 -117 -21 -503 -137 -634 -191 -22 -9
-49 -21 -60 -25 -160 -67 -373 -185 -496 -276 -113 -83 -119 -88 -209 -177
-214 -213 -355 -475 -406 -758 -3 -14 -6 -30 -9 -37 -23 -67 -23 -514 0 -576
5 -12 23 -3 88 47 340 260 733 465 1172 610 208 69 564 153 765 180 19 3 69
10 110 15 41 6 100 13 130 15 127 12 189 16 265 21 98 7 514 7 610 0 39 -2
111 -7 160 -10 50 -3 100 -7 110 -9 11 -2 54 -7 95 -10 99 -9 272 -32 379 -51
47 -8 104 -17 126 -20 22 -4 48 -8 57 -11 10 -3 30 -7 45 -10 154 -26 472
-106 696 -174 616 -187 1187 -454 1555 -729 40 -29 75 -51 78 -48 11 11 7 302
-6 387 -44 316 -156 578 -364 855 -72 96 -272 299 -376 382 -208 166 -474 322
-720 423 -30 12 -69 29 -87 36 -124 55 -533 173 -688 198 -16 3 -70 12 -120
21 -49 8 -110 18 -135 21 -25 3 -56 7 -70 9 -150 21 -405 37 -631 39 -99 1
-181 1 -182 0z"/>
<path d="M2968 4885 c-2 -2 -57 -6 -123 -9 -66 -3 -131 -8 -145 -11 -14 -2
-52 -6 -85 -9 -71 -6 -127 -13 -175 -22 -19 -3 -46 -8 -60 -10 -24 -4 -67 -11
-120 -20 -263 -46 -647 -159 -848 -250 -29 -13 -55 -24 -59 -24 -17 0 -272
-130 -377 -192 -236 -139 -546 -366 -546 -400 0 -4 26 -33 58 -64 176 -176
532 -319 1050 -423 224 -45 226 -45 402 -71 86 -12 125 -18 185 -25 28 -3 66
-8 85 -10 19 -3 60 -7 90 -10 l56 -6 18 43 c40 98 82 189 133 292 42 83 50
107 36 102 -58 -23 -204 -50 -338 -63 -120 -12 -408 -5 -490 12 -5 1 -32 5
-60 9 -274 42 -520 163 -607 298 -23 35 -23 34 10 51 15 7 63 34 108 59 l80
45 46 -42 c26 -23 71 -53 100 -67 65 -31 198 -74 258 -83 25 -4 56 -9 70 -12
116 -21 395 -26 500 -9 19 3 53 8 75 11 80 13 232 57 298 87 l67 31 -62 41
c-93 60 -228 203 -228 241 0 3 50 30 111 61 l111 55 15 -21 c61 -87 189 -170
345 -224 90 -31 107 -33 268 -41 69 -3 152 -8 185 -10 33 -3 105 -7 160 -10
55 -2 141 -7 192 -10 186 -11 492 78 650 191 l48 34 35 -38 c19 -21 48 -54 64
-73 16 -19 38 -44 49 -57 20 -22 20 -22 1 -38 -79 -64 -227 -148 -314 -179
l-35 -12 42 -21 c97 -50 258 -92 413 -108 181 -19 411 -6 576 31 120 28 263
84 305 121 18 16 18 16 112 -108 33 -42 56 -82 52 -87 -11 -18 -141 -90 -220
-122 -43 -17 -127 -42 -187 -55 -163 -37 -222 -43 -433 -44 -82 0 -161 2 -175
4 -14 3 -52 7 -85 10 -69 6 -243 41 -295 58 -19 7 -37 13 -40 13 -11 3 -47 17
-78 31 -18 8 -38 14 -45 14 -9 0 -13 -59 -15 -234 l-4 -234 74 3 c305 15 462
26 618 40 25 3 72 7 105 10 33 3 94 10 135 15 41 5 95 12 120 14 79 9 291 41
403 61 15 3 37 7 50 9 12 2 96 21 187 41 305 68 591 178 709 272 49 39 91 82
91 92 -2 18 -268 199 -416 283 -118 67 -324 170 -444 222 -47 21 -94 41 -105
46 -233 105 -859 302 -1093 345 -12 2 -30 6 -40 9 -9 3 -28 7 -42 10 -14 2
-59 11 -100 19 -41 9 -91 18 -110 21 -19 3 -48 8 -65 11 -16 3 -41 8 -55 10
-14 3 -76 12 -139 20 -63 8 -126 17 -140 19 -14 3 -57 8 -96 11 -38 4 -90 9
-115 11 -120 11 -227 15 -472 18 -147 2 -269 2 -270 1z"/>
<path d="M2943 3903 c-237 -350 -445 -864 -554 -1366 -11 -51 -21 -99 -23
-107 -2 -8 -7 -37 -10 -63 -4 -27 -9 -59 -12 -70 -2 -12 -6 -38 -9 -57 -3 -19
-7 -44 -9 -55 -2 -11 -7 -54 -11 -95 -4 -41 -9 -83 -11 -93 -8 -46 -18 -277
-18 -427 1 -320 29 -574 95 -845 36 -149 89 -318 116 -367 91 -168 274 -284
540 -342 114 -25 586 -22 710 4 212 44 394 126 490 218 110 106 114 135 55
352 -38 141 -53 194 -57 215 -2 6 -14 57 -28 115 -15 58 -42 182 -61 275 -31
155 -40 200 -52 275 -3 14 -9 48 -14 75 -5 28 -12 68 -16 90 -3 22 -9 67 -14
100 -5 33 -12 78 -15 100 -3 22 -7 54 -10 70 -2 17 -7 53 -10 80 -3 28 -8 64
-10 80 -6 45 -14 113 -20 180 -3 33 -8 78 -10 100 -2 22 -7 74 -10 115 -4 41
-8 93 -10 115 -2 22 -7 92 -10 155 -3 63 -8 158 -11 210 -8 143 -7 655 0 823
l7 147 -43 1 c-24 1 -59 2 -78 4 -19 1 -89 5 -155 9 -66 3 -156 9 -200 12
-102 6 -197 11 -357 19 l-126 7 -39 -59z"/>
</g>
</svg>
