<?xml version="1.0" encoding="UTF-8" standalone="no"?>
<svg xmlns="http://www.w3.org/2000/svg" viewBox="0 0 1440 320"><path fill="#1E50D3" fill-opacity="1" d="M0,160L30,170.7C60,181,120,203,180,197.3C240,192,300,160,360,154.7C420,149,480,171,540,202.7C600,235,660,277,720,256C780,235,840,149,900,133.3C960,117,1020,171,1080,197.3C1140,224,1200,224,1260,197.3C1320,171,1380,117,1410,90.7L1440,64L1440,0L1410,0C1380,0,1320,0,1260,0C1200,0,1140,0,1080,0C1020,0,960,0,900,0C840,0,780,0,720,0C660,0,600,0,540,0C480,0,420,0,360,0C300,0,240,0,180,0C120,0,60,0,30,0L0,0Z"/></svg>